<svg width="19" height="18" viewBox="0 0 19 18" fill="none" xmlns="http://www.w3.org/2000/svg">
<path fill-rule="evenodd" clip-rule="evenodd" d="M1.50832 16.2C1.88332 16.425 2.25832 16.5 2.63332 16.5H15.3833C15.9833 16.5 16.5083 16.275 16.8833 15.825C17.3333 15.45 17.5583 14.85 17.5583 14.25C17.5583 13.875 17.4833 13.5 17.2583 13.125L10.9583 2.55005C10.5833 2.02505 10.1333 1.65005 9.53332 1.50005C8.93332 1.35005 8.33332 1.42505 7.80832 1.72505C7.50832 1.87505 7.20832 2.17505 7.05832 2.47505L0.683322 13.125C0.0833216 14.175 0.458322 15.6 1.50832 16.2ZM2.03332 13.875L8.33332 3.30005C8.40832 3.15005 8.48332 3.07505 8.63332 3.00005C9.00832 2.85005 9.45832 2.92505 9.68332 3.30005L15.9833 13.875C16.0583 14.025 16.0583 14.1 16.0583 14.25C16.0583 14.475 15.9833 14.625 15.8333 14.775C15.6833 14.925 15.5333 15 15.3083 15H2.63332C2.55832 15 2.40832 15 2.33332 14.925C1.95832 14.7 1.80832 14.25 2.03332 13.875ZM9.75832 9.75005V6.75005C9.75832 6.30005 9.45832 6.00005 9.00832 6.00005C8.55832 6.00005 8.25832 6.30005 8.25832 6.75005V9.75005C8.25832 10.2 8.55832 10.5 9.00832 10.5C9.45832 10.5 9.75832 10.2 9.75832 9.75005ZM9.75832 12.75C9.75832 12.975 9.68332 13.125 9.53332 13.275C9.38332 13.425 9.23332 13.5 8.93332 13.5C8.70832 13.5 8.55832 13.425 8.40832 13.275C8.25832 13.125 8.18332 12.975 8.18332 12.75C8.18332 12.6622 8.20906 12.6 8.23038 12.5486C8.24545 12.5122 8.25832 12.4811 8.25832 12.45C8.25832 12.375 8.33332 12.3 8.40832 12.225C8.48332 12.15 8.55832 12.075 8.63332 12.075C8.78332 12 8.93332 12 9.08332 12C9.12645 12.0432 9.14478 12.0615 9.16683 12.0693C9.18312 12.075 9.20145 12.075 9.23332 12.075C9.27082 12.075 9.28957 12.0938 9.30832 12.1125C9.32707 12.1313 9.34582 12.15 9.38332 12.15C9.45832 12.15 9.53332 12.225 9.53332 12.225C9.60832 12.3 9.68332 12.375 9.68332 12.45C9.75832 12.525 9.75832 12.675 9.75832 12.75Z" fill="#4B4B4B"/>
<mask id="mask0_6513_123735" style="mask-type:alpha" maskUnits="userSpaceOnUse" x="0" y="1" width="18" height="16">
<path fill-rule="evenodd" clip-rule="evenodd" d="M1.50832 16.2C1.88332 16.425 2.25832 16.5 2.63332 16.5H15.3833C15.9833 16.5 16.5083 16.275 16.8833 15.825C17.3333 15.45 17.5583 14.85 17.5583 14.25C17.5583 13.875 17.4833 13.5 17.2583 13.125L10.9583 2.55005C10.5833 2.02505 10.1333 1.65005 9.53332 1.50005C8.93332 1.35005 8.33332 1.42505 7.80832 1.72505C7.50832 1.87505 7.20832 2.17505 7.05832 2.47505L0.683322 13.125C0.0833216 14.175 0.458322 15.6 1.50832 16.2ZM2.03332 13.875L8.33332 3.30005C8.40832 3.15005 8.48332 3.07505 8.63332 3.00005C9.00832 2.85005 9.45832 2.92505 9.68332 3.30005L15.9833 13.875C16.0583 14.025 16.0583 14.1 16.0583 14.25C16.0583 14.475 15.9833 14.625 15.8333 14.775C15.6833 14.925 15.5333 15 15.3083 15H2.63332C2.55832 15 2.40832 15 2.33332 14.925C1.95832 14.7 1.80832 14.25 2.03332 13.875ZM9.75832 9.75005V6.75005C9.75832 6.30005 9.45832 6.00005 9.00832 6.00005C8.55832 6.00005 8.25832 6.30005 8.25832 6.75005V9.75005C8.25832 10.2 8.55832 10.5 9.00832 10.5C9.45832 10.5 9.75832 10.2 9.75832 9.75005ZM9.75832 12.75C9.75832 12.975 9.68332 13.125 9.53332 13.275C9.38332 13.425 9.23332 13.5 8.93332 13.5C8.70832 13.5 8.55832 13.425 8.40832 13.275C8.25832 13.125 8.18332 12.975 8.18332 12.75C8.18332 12.6622 8.20906 12.6 8.23038 12.5486C8.24545 12.5122 8.25832 12.4811 8.25832 12.45C8.25832 12.375 8.33332 12.3 8.40832 12.225C8.48332 12.15 8.55832 12.075 8.63332 12.075C8.78332 12 8.93332 12 9.08332 12C9.12645 12.0432 9.14478 12.0615 9.16683 12.0693C9.18312 12.075 9.20145 12.075 9.23332 12.075C9.27082 12.075 9.28957 12.0938 9.30832 12.1125C9.32707 12.1313 9.34582 12.15 9.38332 12.15C9.45832 12.15 9.53332 12.225 9.53332 12.225C9.60832 12.3 9.68332 12.375 9.68332 12.45C9.75832 12.525 9.75832 12.675 9.75832 12.75Z" fill="white"/>
</mask>
<g mask="url(#mask0_6513_123735)">
<rect x="0.00830078" width="18" height="18" fill="#4B4B4B"/>
</g>
</svg>
