<svg width="18" height="18" viewBox="0 0 18 18" fill="none" xmlns="http://www.w3.org/2000/svg">
<path fill-rule="evenodd" clip-rule="evenodd" d="M15 4.5H12.75V3.75C12.75 2.475 11.775 1.5 10.5 1.5H7.5C6.225 1.5 5.25 2.475 5.25 3.75V4.5H3C1.725 4.5 0.75 5.475 0.75 6.75V14.25C0.75 15.525 1.725 16.5 3 16.5H15C16.275 16.5 17.25 15.525 17.25 14.25V6.75C17.25 5.475 16.275 4.5 15 4.5ZM6.75 3.75C6.75 3.3 7.05 3 7.5 3H10.5C10.95 3 11.25 3.3 11.25 3.75V4.5H6.75V3.75ZM11.25 15V6H6.75V15H11.25ZM2.25 14.25V6.75C2.25 6.3 2.55 6 3 6H5.25V15H3C2.55 15 2.25 14.7 2.25 14.25ZM15 15C15.45 15 15.75 14.7 15.75 14.25V6.75C15.75 6.3 15.45 6 15 6H12.75V15H15Z" fill="#4B4B4B"/>
<mask id="mask0_6513_123738" style="mask-type:alpha" maskUnits="userSpaceOnUse" x="0" y="1" width="18" height="16">
<path fill-rule="evenodd" clip-rule="evenodd" d="M15 4.5H12.75V3.75C12.75 2.475 11.775 1.5 10.5 1.5H7.5C6.225 1.5 5.25 2.475 5.25 3.75V4.5H3C1.725 4.5 0.75 5.475 0.75 6.75V14.25C0.75 15.525 1.725 16.5 3 16.5H15C16.275 16.5 17.25 15.525 17.25 14.25V6.75C17.25 5.475 16.275 4.5 15 4.5ZM6.75 3.75C6.75 3.3 7.05 3 7.5 3H10.5C10.95 3 11.25 3.3 11.25 3.75V4.5H6.75V3.75ZM11.25 15V6H6.75V15H11.25ZM2.25 14.25V6.75C2.25 6.3 2.55 6 3 6H5.25V15H3C2.55 15 2.25 14.7 2.25 14.25ZM15 15C15.45 15 15.75 14.7 15.75 14.25V6.75C15.75 6.3 15.45 6 15 6H12.75V15H15Z" fill="white"/>
</mask>
<g mask="url(#mask0_6513_123738)">
<rect width="18" height="18" fill="#4B4B4B"/>
</g>
</svg>
