<svg width="24" height="24" viewBox="0 0 24 24" fill="none" xmlns="http://www.w3.org/2000/svg">
<path d="M12 5V1L17 6L12 11V7C8.7 7 6 9.7 6 13C6 16.3 8.7 19 12 19C15.3 19 18 16.3 18 13H20C20 17.4 16.4 21 12 21C7.6 21 4 17.4 4 13C4 8.6 7.6 5 12 5Z" fill="#B9B9C3"/>
<path d="M10.7878 15.9239V12.0761H10.0542C9.82561 12.1832 9.22228 12.5243 9 12.6653V13.3221C9.2064 13.1952 9.84784 12.8288 10.0034 12.7526H10.0288V15.9239H10.7878Z" fill="#B9B9C3"/>
<path d="M12.5549 13.8661C12.5549 13.0176 12.8788 12.5666 13.3932 12.5666C13.9077 12.5666 14.2347 13.0204 14.2347 13.8661V14.1339C14.2347 14.9796 13.9077 15.4362 13.3932 15.4362C12.8788 15.4362 12.5549 14.9824 12.5549 14.1339V13.8661ZM11.7865 14.1395C11.7865 15.2615 12.3517 16 13.3901 16C14.4507 16 15 15.2276 15 14.1395V13.8633C15 12.7357 14.438 12 13.4028 12C12.3676 12 11.7865 12.7414 11.7865 13.8633V14.1395Z" fill="#B9B9C3"/>
</svg>
