<svg width="24" height="24" viewBox="0 0 24 24" fill="none" xmlns="http://www.w3.org/2000/svg">
<path d="M12 5V1L7 6L12 11V7C15.3 7 18 9.7 18 13C18 16.3 15.3 19 12 19C8.7 19 6 16.3 6 13H4C4 17.4 7.6 21 12 21C16.4 21 20 17.4 20 13C20 8.6 16.4 5 12 5ZM10.9 16H10V12.7L9 13V12.3L10.8 11.7H10.9V16ZM15.2 14.2C15.2 14.5 15.2 14.8 15.1 15L14.8 15.6C14.8 15.6 14.5 15.9 14.3 15.9C14.1 15.9 13.9 16 13.7 16C13.5 16 13.3 16 13.1 15.9C12.9 15.8 12.8 15.7 12.6 15.6C12.4 15.5 12.4 15.3 12.3 15C12.2 14.7 12.2 14.5 12.2 14.2V13.5C12.2 13.2 12.2 12.9 12.3 12.7L12.6 12.1C12.6 12.1 12.9 11.8 13.1 11.8C13.3 11.8 13.5 11.7 13.7 11.7C13.9 11.7 14.1 11.7 14.3 11.8C14.5 11.9 14.6 12 14.8 12.1C15 12.2 15 12.4 15.1 12.7C15.2 13 15.2 13.2 15.2 13.5V14.2ZM14.3 13.4V12.9C14.3 12.9 14.2 12.7 14.2 12.6C14.2 12.5 14.1 12.5 14 12.4C13.9 12.3 13.8 12.3 13.7 12.3C13.6 12.3 13.5 12.3 13.4 12.4L13.2 12.6C13.2 12.6 13.1 12.8 13.1 12.9V14.9C13.1 14.9 13.2 15.1 13.2 15.2C13.2 15.3 13.3 15.3 13.4 15.4C13.5 15.5 13.6 15.5 13.7 15.5C13.8 15.5 13.9 15.5 14 15.4L14.2 15.2C14.2 15.2 14.3 15 14.3 14.9V13.4Z" fill="#B9B9C3"/>
</svg>
