<svg width="53" height="37" viewBox="0 0 53 37" fill="none" xmlns="http://www.w3.org/2000/svg">
<path fill-rule="evenodd" clip-rule="evenodd" d="M33.7343 1.77573C34.2281 1.77573 34.7219 1.74536 35.1231 1.715C35.745 1.715 36.3252 1.7698 36.9009 1.82419L36.901 1.82419C37.1824 1.85078 37.4628 1.87726 37.7464 1.8972C40.4623 2.10978 42.8387 3.26375 44.9682 4.8125C47.3138 6.5131 49.0421 8.72994 50.1531 11.4023C50.3982 12.0144 50.5741 12.6378 50.7514 13.2656L50.7514 13.2657L50.7514 13.2657C50.8643 13.6658 50.9777 14.0676 51.1099 14.4694C51.2025 14.8035 51.3876 15.1375 51.8197 15.0768C52.2209 14.9857 52.4369 14.682 52.4678 14.2872C52.4678 14.105 52.4678 13.9532 52.437 13.771C52.0975 11.2505 51.3259 8.91215 49.8445 6.81677C47.8693 4.02294 45.3077 2.07941 42.0981 0.895067C39.3204 -0.137435 36.4811 -0.167803 33.6109 0.257345C33.0862 0.348449 32.9011 0.621759 32.9319 1.10764C32.9628 1.59353 33.2714 1.77573 33.7343 1.77573ZM35.1547 6.23282C35.2884 6.22607 35.4222 6.21932 35.5559 6.2092C37.3459 6.14846 39.0434 6.60398 40.5247 7.36317C43.2098 8.82082 45.185 10.8858 46.0491 13.8619C46.0891 13.9877 46.127 14.1114 46.1644 14.2337C46.2715 14.5836 46.3748 14.9212 46.5121 15.2588C46.6664 15.6536 46.975 15.9572 47.4379 15.8054C47.8391 15.6839 47.9935 15.3499 47.9626 14.9551C47.9525 14.8594 47.9428 14.7636 47.9331 14.668V14.668C47.8537 13.8837 47.7747 13.1046 47.4997 12.3738C46.9441 10.8858 46.1726 9.45854 45.0615 8.2742C44.0122 7.1506 42.8086 6.2092 41.4198 5.57147C39.1359 4.5086 36.7287 4.3264 34.2288 4.66044C33.6424 4.75155 33.3955 5.05522 33.4264 5.51074C33.4264 5.99662 33.735 6.3914 34.3523 6.3003C34.6197 6.25981 34.8872 6.24631 35.1547 6.23282ZM36.2961 9.09448C39.7835 8.97301 43.0241 11.8579 43.4253 15.2288C43.4253 15.271 43.4319 15.3133 43.4391 15.3586L43.4391 15.3587C43.4473 15.411 43.4562 15.4674 43.4562 15.5324C43.4562 15.581 43.4574 15.6308 43.4586 15.6811C43.468 16.0705 43.4782 16.4877 42.9315 16.5953C42.3142 16.7168 42.1291 16.2613 41.9748 15.8058C41.6044 14.4999 40.9563 13.3763 39.907 12.4653C38.5799 11.3417 37.1294 10.6432 35.3393 10.704C35.2904 10.7065 35.2409 10.7097 35.1911 10.7129C34.6436 10.7478 34.0637 10.7849 33.9505 10.0055C33.8888 9.48926 34.5061 9.12485 35.4011 9.09448H36.2961ZM22.9947 25.6144C23.7046 24.0353 24.5687 22.6384 25.5563 21.2718C26.6365 19.8142 27.8401 18.478 29.1672 17.2633C30.6486 15.9575 32.2226 14.7731 34.0126 13.9228C35.3397 13.3155 36.5742 13.7102 37.6235 14.4998C38.642 15.2894 39.1358 16.413 38.9197 17.7491C38.6831 19.1751 38.1064 20.5174 37.5427 21.8295L37.5427 21.8295L37.4692 22.0006C36.9445 23.2153 36.2964 24.3997 35.5866 25.5233C34.0126 27.9831 32.13 30.1695 29.8153 32.022C28.3339 33.2063 26.7291 34.2692 25.0317 35.1195C24.9313 35.1677 24.8311 35.216 24.731 35.2644L24.7267 35.2664L24.7252 35.2672C23.5654 35.8272 22.417 36.3818 21.1121 36.5771C20.0319 36.7593 18.9518 36.5468 17.995 36.0913C15.3409 34.8158 13.057 33.0545 10.8658 31.1413C8.92148 29.4407 7.19318 27.5579 5.74265 25.4929C4.16866 23.3064 2.93417 20.9378 1.91571 18.4172C1.05156 16.2611 0.310865 14.0747 0.0331031 11.7667C-0.306383 9.00325 2.0083 6.63456 5.00195 7.12045C6.85369 7.42412 8.36594 8.45662 9.8782 9.48912L9.8782 9.48912L9.87821 9.48913C11.2053 10.4002 12.4707 11.4023 13.6743 12.4652C15.1865 13.8013 16.5445 15.2286 17.8098 16.747C19.4764 18.7817 20.8035 21.0592 22.0071 23.3975C22.1301 23.6615 22.2328 23.9334 22.3358 24.2061L22.3358 24.2061C22.5172 24.6863 22.6995 25.1689 22.9947 25.6144ZM34.0738 27.0114C34.6294 26.4951 35.2466 25.3108 35.0614 25.0071C34.4751 23.9139 33.8269 22.8814 32.8702 22.0311C31.3579 20.6949 29.5679 20.0268 27.5927 19.8142C27.3767 19.7838 27.1607 19.7838 26.9755 19.9964C26.6669 20.4216 26.3274 20.8467 25.957 21.3022C29.8148 21.697 32.5307 23.5798 34.0738 27.0114ZM35.4317 23.1543C33.7343 20.6945 31.3888 19.2368 28.3643 18.6902C28.9198 17.597 29.5679 17.3236 30.6789 17.5666C33.4566 18.1739 35.3083 19.6012 36.6045 22.0306C36.8514 22.4558 36.4502 23.3061 35.9255 24.0046C35.8097 23.6626 35.6938 23.5089 35.5649 23.3378L35.5649 23.3377L35.5648 23.3377C35.522 23.2809 35.4779 23.2223 35.4317 23.1543ZM37.3768 21.2112C37.4142 21.1376 37.4516 21.0651 37.4887 20.9933C37.7266 20.5321 37.949 20.101 38.0558 19.6017C38.1175 19.2677 37.9941 18.9944 37.8089 18.721C36.8213 17.2634 35.4942 16.1701 33.7659 15.5628C32.4697 15.1073 31.7907 15.2895 30.834 16.5042C33.7351 17.1116 35.8954 18.6907 37.3768 21.2112Z" fill="white"/>
</svg>
