<svg width="24" height="17" viewBox="0 0 24 17" fill="none" xmlns="http://www.w3.org/2000/svg">
<path fill-rule="evenodd" clip-rule="evenodd" d="M15.4309 0.812261C15.6568 0.812261 15.8826 0.79837 16.0662 0.784479C16.3506 0.784479 16.616 0.809547 16.8794 0.834426L16.8794 0.834429L16.8794 0.834432C17.0081 0.846591 17.1364 0.858705 17.2661 0.867825C18.5084 0.965061 19.5955 1.49292 20.5696 2.20135C21.6425 2.97924 22.433 3.99328 22.9412 5.21568C23.0533 5.49567 23.1338 5.78084 23.2149 6.06802L23.2149 6.06805L23.2149 6.06808C23.2666 6.25106 23.3184 6.43486 23.3789 6.61866C23.4212 6.77146 23.5059 6.92426 23.7036 6.89648C23.8871 6.8548 23.9859 6.7159 24 6.53531V6.53528C24 6.45195 24 6.3825 23.9859 6.29917C23.8306 5.14622 23.4777 4.07662 22.8001 3.11815C21.8966 1.84019 20.7248 0.95117 19.2567 0.409425C17.9861 -0.0628662 16.6873 -0.0767568 15.3744 0.117716C15.1344 0.159389 15.0497 0.284407 15.0639 0.506662C15.078 0.728916 15.2191 0.812261 15.4309 0.812261ZM16.0806 2.8511L16.0806 2.8511C16.1418 2.84801 16.2029 2.84493 16.2641 2.8403C17.0829 2.81252 17.8593 3.02088 18.537 3.36815C19.7652 4.03491 20.6687 4.9795 21.0639 6.34081C21.0822 6.39835 21.0995 6.45496 21.1167 6.51089C21.1657 6.67096 21.2129 6.82537 21.2757 6.97979C21.3463 7.16037 21.4875 7.29928 21.6992 7.22982C21.8827 7.17426 21.9533 7.02146 21.9392 6.84088C21.9346 6.79709 21.9302 6.7533 21.9257 6.70955L21.9257 6.70952C21.8894 6.35077 21.8533 5.99443 21.7274 5.66015C21.4733 4.9795 21.1204 4.32662 20.6122 3.78488C20.1322 3.27092 19.5816 2.8403 18.9464 2.54859C17.9017 2.06241 16.8005 1.97906 15.6571 2.13186C15.3888 2.17353 15.2759 2.31244 15.29 2.52081C15.29 2.74306 15.4312 2.92364 15.7135 2.88197C15.8359 2.86345 15.9582 2.85727 16.0806 2.8511ZM16.6027 4.16002C18.1979 4.10445 19.6802 5.42409 19.8637 6.96598C19.8637 6.98532 19.8668 7.00466 19.87 7.02539C19.8738 7.04933 19.8779 7.07512 19.8779 7.10489C19.8779 7.12712 19.8784 7.1499 19.879 7.17289C19.8833 7.35099 19.8879 7.54186 19.6379 7.59107C19.3555 7.64664 19.2708 7.43828 19.2002 7.22991C19.0308 6.6326 18.7344 6.11864 18.2544 5.70191C17.6473 5.18795 16.9838 4.86846 16.165 4.89624C16.1427 4.8974 16.12 4.89884 16.0972 4.9003C15.8468 4.9163 15.5815 4.93326 15.5298 4.57675C15.5015 4.3406 15.7839 4.17391 16.1933 4.16002H16.6027ZM10.5183 11.7166C10.843 10.9943 11.2383 10.3553 11.6901 9.73024C12.1842 9.06347 12.7347 8.45227 13.3418 7.89664C14.0194 7.29933 14.7394 6.75758 15.5582 6.36864C16.1652 6.09082 16.7299 6.2714 17.2099 6.63256C17.6757 6.99373 17.9016 7.50769 17.8028 8.11889C17.6946 8.77117 17.4308 9.38518 17.1729 9.98537L17.1393 10.0636C16.8993 10.6193 16.6028 11.161 16.2781 11.675C15.5582 12.8001 14.697 13.8003 13.6382 14.6476C12.9606 15.1894 12.2265 15.6755 11.4501 16.0645L11.3099 16.1321C10.7794 16.3882 10.2541 16.6419 9.65718 16.7313C9.16308 16.8146 8.66897 16.7174 8.23134 16.509C7.01726 15.9256 5.97259 15.1199 4.97027 14.2448C4.08089 13.4669 3.29033 12.6057 2.62682 11.6611C1.90684 10.6609 1.34216 9.57744 0.87629 8.42449C0.481009 7.43824 0.142197 6.43809 0.0151421 5.38238C-0.140147 4.11831 0.918642 3.03482 2.28801 3.25707C3.13504 3.39598 3.82678 3.86827 4.51852 4.34057C5.12556 4.75729 5.70437 5.21569 6.25494 5.70187C6.94668 6.31307 7.56783 6.96595 8.14664 7.66049C8.90897 8.59118 9.51601 9.633 10.0666 10.7026C10.1228 10.8233 10.1698 10.9477 10.2169 11.0724L10.2169 11.0724L10.2169 11.0724L10.2169 11.0724L10.2169 11.0725C10.2999 11.2921 10.3833 11.5129 10.5183 11.7166ZM15.5862 12.3557C15.8403 12.1195 16.1226 11.5778 16.0379 11.4389C15.7697 10.9388 15.4732 10.4665 15.0356 10.0775C14.3439 9.46635 13.5251 9.16075 12.6216 9.06351C12.5227 9.04962 12.4239 9.04962 12.3392 9.14686C12.198 9.34133 12.0428 9.5358 11.8734 9.74416C13.638 9.92475 14.8803 10.786 15.5862 12.3557ZM16.2073 10.5914C15.4309 9.46626 14.358 8.79949 12.9745 8.54946C13.2286 8.04938 13.525 7.92437 14.0333 8.03549C15.3038 8.31331 16.1508 8.96618 16.7438 10.0775C16.8567 10.2719 16.6732 10.6609 16.4332 10.9804C16.3802 10.8239 16.3272 10.7536 16.2682 10.6754L16.2682 10.6753C16.2486 10.6494 16.2284 10.6226 16.2073 10.5914ZM17.097 9.70262C17.1141 9.66895 17.1313 9.63578 17.1482 9.60295C17.257 9.39197 17.3587 9.19479 17.4076 8.9664C17.4358 8.8136 17.3794 8.68858 17.2947 8.56357C16.8429 7.8968 16.2359 7.39673 15.4453 7.11891C14.8524 6.91055 14.5418 6.99389 14.1042 7.54953C15.4312 7.82735 16.4194 8.54968 17.097 9.70262Z" fill="#6E6B7B"/>
</svg>
